<svg xmlns="http://www.w3.org/2000/svg" version="1.1" xmlns:xlink="http://www.w3.org/1999/xlink" xmlns:svgjs="http://svgjs.com/svgjs" x="0" y="0" viewBox="0 0 64 64" style="enable-background:new 0 0 512 512" xml:space="preserve"><g><title xmlns="http://www.w3.org/2000/svg">car insurance</title><g xmlns="http://www.w3.org/2000/svg" id="car_insurance" data-name="car insurance"><path d="M20.4,33.79c-6.34-.94-5-.79-6.4-.79a3,3,0,0,0-3,3v2a3,3,0,0,0,3,3h6a3,3,0,0,0,3-3V36.77A3,3,0,0,0,20.4,33.79ZM21,38a1,1,0,0,1-1,1H14a1,1,0,0,1-1-1V36a1,1,0,0,1,1-1c1.23,0,.09-.12,6.12.77a1,1,0,0,1,.88,1Z" fill="currentColor" data-original="#000000"/><path d="M37.78,34c-12.28,0-12.29-.27-13.11.73s-.41,1.69.19,4.66a2,2,0,0,0,2,1.61H37.18a2,2,0,0,0,2-1.61l.6-3A2,2,0,0,0,37.78,34Zm-.6,5Zm0,0H26.82l-.6-3H37.78Z" fill="currentColor" data-original="#000000"/><path d="M19,30H45a3.82,3.82,0,0,0,3.63-5.2L45.37,16a3,3,0,0,0-2.81-2H21.44a3,3,0,0,0-2.81,2l-3.27,8.87A3.8,3.8,0,0,0,19,30Zm-1.76-4.48C20.77,15.94,20.5,16,21.44,16H42.56c.94,0,.65-.12,4.19,9.5a1.8,1.8,0,0,1-.34,1.91c-.82.83.82.59-27.41.59A1.8,1.8,0,0,1,17.24,25.52Z" fill="currentColor" data-original="#000000"/><path d="M53.29,38.29,49,42.59l-1.79-1.8a1,1,0,0,0-1.42,1.42C48.49,44.91,48.45,45,49,45s.35.06,5.71-5.29A1,1,0,0,0,53.29,38.29Z" fill="currentColor" data-original="#000000"/><path d="M56.76,30.88a4.68,4.68,0,0,0-.86-1.6c-2.3-2.88-2-2.28-1.4-2.28h2a3.5,3.5,0,0,0,0-7c-2,0-3.69-.27-4.92,1.58l-2.26-6.8A7,7,0,0,0,42.68,10H21.32a7,7,0,0,0-6.64,4.78l-2.26,6.8C11.2,19.74,9.47,20,7.5,20a3.5,3.5,0,0,0,0,7A13.15,13.15,0,0,0,10,27C6.29,31.53,7,29.49,7,42a4,4,0,0,0,3,3.86v4.87A3.28,3.28,0,0,0,13.27,54h4.46A3.28,3.28,0,0,0,21,50.73V46c5.08,0,4.15.27,5.41-1H37.59c1.2,1.2.66,1,3.35,1a13.33,13.33,0,0,0,8.79,8C51.35,54.42,60,50.2,60,41.14V32.56C60,31.62,59.32,31.61,56.76,30.88ZM54.5,22h2a1.5,1.5,0,0,1,0,3h-2A1.5,1.5,0,0,1,54.5,22Zm-47,3a1.5,1.5,0,0,1,0-3h2a1.5,1.5,0,0,1,0,3ZM19,50.73A1.27,1.27,0,0,1,17.73,52H13.27A1.27,1.27,0,0,1,12,50.73V46h7ZM39.41,44c-.59-.6-.87-1-1.41-1-13.74,0-12.07-.34-13.41,1H11a2,2,0,0,1-2-2c0-10.24-.22-10.38.66-11.47,3.37-4.22,3.2-4,3.29-4.21l3.63-10.9A5,5,0,0,1,21.32,12H42.68a5,5,0,0,1,4.74,3.42c4,11.92,3.64,11,3.8,11.21L54,30.1,50.27,29c-.38-.11.25-.23-9.54,2.56a1,1,0,0,0-.73,1c0,8.46-.1,9.55.31,11.44ZM58,41.14A11.35,11.35,0,0,1,50,52a11.47,11.47,0,0,1-7.43-7.27C41.81,42.38,42,41.4,42,33.32L50,31l8,2.28Z" fill="currentColor" data-original="#000000"/></g></g></svg>